HIERARCHY
ROOT Pelvis
{
	OFFSET 0.000000 0.941512 0.000000
	CHANNELS 6 Xposition Yposition Zposition Zrotation Yrotation Xrotation 
	JOINT Pelvis_L_Hip
	{
		OFFSET 0.000000 0.000000 0.000000
		CHANNELS 3 Zrotation Yrotation Xrotation
		JOINT L_Hip
		{
			OFFSET 0.062321 -0.080322 -0.016990
			CHANNELS 3 Zrotation Yrotation Xrotation
			JOINT L_Knee
			{
				OFFSET 0.093051 -0.381305 -0.029784
				CHANNELS 3 Zrotation Yrotation Xrotation
				JOINT L_Ankle
				{
					OFFSET -0.010371 -0.431000 -0.033614
					CHANNELS 3 Zrotation Yrotation Xrotation
					End Site #name: L_Foot
					{
						OFFSET 0.069299 -0.038670 0.119418
					}
				}
			}
		}
	}
	JOINT Pelvis_R_Hip
	{
		OFFSET 0.000000 0.000000 0.000000
		CHANNELS 3 Zrotation Yrotation Xrotation
		JOINT R_Hip
		{
			OFFSET -0.055334 -0.094904 -0.002373
			CHANNELS 3 Zrotation Yrotation Xrotation
			JOINT R_Knee
			{
				OFFSET -0.064207 -0.384370 -0.019592
				CHANNELS 3 Zrotation Yrotation Xrotation
				JOINT R_Ankle
				{
					OFFSET 0.025418 -0.419734 -0.065953
					CHANNELS 3 Zrotation Yrotation Xrotation
					End Site #name: R_Foot
					{
						OFFSET -0.057233 -0.039888 0.132134
					}
				}
			}
		}
	}
	JOINT Pelvis_Spine1
	{
		OFFSET 0.000000 0.000000 0.000000
		CHANNELS 3 Zrotation Yrotation Xrotation
		JOINT Spine1
		{
			OFFSET -0.005562 0.124093 -0.043360
			CHANNELS 3 Zrotation Yrotation Xrotation
			JOINT Spine2
			{
				OFFSET 0.012244 0.139499 0.029894
				CHANNELS 3 Zrotation Yrotation Xrotation
				JOINT Spine3
				{
					OFFSET -0.002556 0.056561 0.009225
					CHANNELS 3 Zrotation Yrotation Xrotation
					JOINT Spine3_Neck
					{
						OFFSET 0.000000 0.000000 0.000000
						CHANNELS 3 Zrotation Yrotation Xrotation
						JOINT Neck
						{
							OFFSET -0.005205 0.217920 -0.024551
							CHANNELS 3 Zrotation Yrotation Xrotation
							End Site #name: Head
							{
								OFFSET 0.002365 0.091850 0.046637
							}
						}
					}
					JOINT Spine3_L_Collar
					{
						OFFSET 0.000000 0.000000 0.000000
						CHANNELS 3 Zrotation Yrotation Xrotation
						JOINT L_Collar
						{
							OFFSET 0.072225 0.116603 -0.009480
							CHANNELS 3 Zrotation Yrotation Xrotation
							JOINT L_Shoulder
							{
								OFFSET 0.115937 -0.058643 -0.021018
								CHANNELS 3 Zrotation Yrotation Xrotation
								JOINT L_Elbow
								{
									OFFSET 0.021994 -0.254722 -0.024492
									CHANNELS 3 Zrotation Yrotation Xrotation
									End Site #name: L_Wrist
									{
										OFFSET 0.048810 -0.240214 0.103329
									}
								}
							}
						}
					}
					JOINT Spine3_R_Collar
					{
						OFFSET 0.000000 0.000000 0.000000
						CHANNELS 3 Zrotation Yrotation Xrotation
						JOINT R_Collar
						{
							OFFSET -0.073372 0.120704 -0.024611
							CHANNELS 3 Zrotation Yrotation Xrotation
							JOINT R_Shoulder
							{
								OFFSET -0.108089 -0.054969 -0.020504
								CHANNELS 3 Zrotation Yrotation Xrotation
								JOINT R_Elbow
								{
									OFFSET -0.033684 -0.260739 0.009889
									CHANNELS 3 Zrotation Yrotation Xrotation
									End Site #name: R_Wrist
									{
										OFFSET -0.067980 -0.232763 0.118463
									}
								}
							}
						}
					}
				}
			}
		}
	}
}
MOTION
Frames: 9
Frame Time: 0.041667
-0.647311 1.079397 0.125749 8.052172 21.789586 17.876620 0.000000 0.000000 0.000000 -14.841569 0.002171 -3.201257 14.307681 0.709724 -17.661972 18.064927 45.282558 111.169762 0.000000 0.000000 0.000000 17.339209 2.372981 -12.177864 -38.441116 -40.700420 -74.959784 80.473962 -49.734130 147.835743 0.000000 0.000000 0.000000 -6.366259 0.506465 -33.563802 -11.220347 2.894182 8.772664 15.311587 14.450984 26.919433 0.000000 0.000000 0.000000 -25.995681 -18.536530 -73.250250 0.000000 0.000000 0.000000 -130.928141 46.248962 -28.515582 23.365466 5.920413 -78.342918 22.159316 8.952850 9.490439 0.000000 0.000000 0.000000 157.345235 76.059421 27.466190 -85.124087 47.357662 66.676834 40.932699 3.631479 26.788045 
-0.645994 1.026336 0.082281 8.802350 20.187802 17.489476 0.000000 0.000000 0.000000 -16.913574 -0.581521 -4.705866 12.836214 0.845643 -20.697726 26.267480 46.525388 116.648871 0.000000 0.000000 0.000000 18.380590 2.433924 -12.275566 -28.655655 -42.233412 -90.915417 168.416386 -19.765178 141.569840 0.000000 0.000000 0.000000 -5.421931 0.797946 -32.932549 -12.891754 3.196771 8.305815 14.833577 13.037937 27.833696 0.000000 0.000000 0.000000 -24.258330 -16.969345 -74.001492 0.000000 0.000000 0.000000 -134.334893 42.263601 -28.858113 24.552405 7.155035 -80.100781 22.608997 9.097273 9.664028 0.000000 0.000000 0.000000 156.227733 71.584748 22.784244 -104.592810 44.426092 47.242399 40.105246 -1.133711 33.368391 
-0.643182 0.964709 0.039667 8.933725 18.957000 17.694523 0.000000 0.000000 0.000000 -18.557386 -0.913738 -5.483266 10.899249 0.884957 -28.373493 92.981710 41.769034 141.631057 0.000000 0.000000 0.000000 20.621156 2.319840 -11.860743 -15.080522 -39.231325 -109.828387 -131.465339 -21.022248 154.364220 0.000000 0.000000 0.000000 -4.327276 0.818474 -35.856684 -12.926576 3.510461 10.504982 12.621155 11.613777 27.641237 0.000000 0.000000 0.000000 -21.221723 -13.128200 -71.722522 0.000000 0.000000 0.000000 -137.316510 35.064427 -26.376449 31.464959 12.636435 -82.663108 23.996683 9.387851 13.126543 0.000000 0.000000 0.000000 152.686507 65.927401 15.727260 -120.365644 34.191099 29.504592 36.589388 -6.397647 40.547921 
-0.641692 0.924171 0.006774 6.092757 14.934756 17.921643 0.000000 0.000000 0.000000 -16.048191 -0.530155 -4.762800 10.499529 1.372944 -36.624858 123.714793 34.705798 147.951955 0.000000 0.000000 0.000000 24.894359 1.029963 -8.094452 -1.573605 -25.792964 -124.987917 -103.140028 -35.057542 147.002605 0.000000 0.000000 0.000000 -0.129365 1.639917 -41.755088 -12.616800 3.989043 14.063884 9.130411 9.112646 26.729708 0.000000 0.000000 0.000000 -15.896381 -9.154967 -73.186122 0.000000 0.000000 0.000000 -140.993168 23.911606 -24.364609 43.715037 22.555192 -84.550585 23.307282 8.833012 23.999708 0.000000 0.000000 0.000000 152.563166 57.335255 13.516182 -124.961713 29.478843 24.299552 32.192376 -6.536714 39.795800 
-0.639897 0.920995 -0.022303 4.898829 10.869198 19.040799 0.000000 0.000000 0.000000 -16.399162 -1.034962 -6.167037 11.812380 2.491345 -40.295979 130.803422 32.016038 149.950715 0.000000 0.000000 0.000000 25.638310 -0.595642 -3.716430 2.515034 -17.328294 -131.091702 -79.381319 -36.003343 149.050152 0.000000 0.000000 0.000000 1.937987 2.560646 -43.933461 -13.683193 4.153274 12.430378 7.767623 5.766059 27.190558 0.000000 0.000000 0.000000 -10.924526 -6.483962 -77.526821 0.000000 0.000000 0.000000 -142.696170 16.294311 -24.622624 51.418059 28.866673 -84.950010 22.915113 8.520780 32.187134 0.000000 0.000000 0.000000 149.826443 36.211099 -5.685859 -129.792416 -23.542780 -11.867609 3.199983 -12.715391 50.876146 
-0.639981 0.935745 -0.051507 4.260386 8.819863 19.859042 0.000000 0.000000 0.000000 -17.164361 -3.600065 -12.366061 15.721921 3.173900 -33.302808 124.824765 29.055616 154.774741 0.000000 0.000000 0.000000 27.879160 -3.109115 1.781937 1.024813 -17.860890 -134.205785 -24.916278 -39.651927 148.830000 0.000000 0.000000 0.000000 1.686293 2.868779 -44.969836 -12.968993 3.939558 11.915803 6.504189 3.558781 26.801393 0.000000 0.000000 0.000000 -7.586925 -4.404143 -79.260491 0.000000 0.000000 0.000000 -143.381447 8.401286 -21.329395 66.420773 35.319848 -76.683839 24.724819 8.561372 35.522164 0.000000 0.000000 0.000000 149.943804 21.739079 -17.154167 -93.587170 -43.438923 -48.597626 -14.424299 -11.988579 43.662062 
-0.639571 0.957214 -0.076299 3.994630 6.902408 19.449788 0.000000 0.000000 0.000000 -17.783513 -5.176515 -16.035084 19.204835 3.321445 -28.099244 108.926113 29.290448 161.991553 0.000000 0.000000 0.000000 28.895220 -7.012567 10.104217 -1.153233 -19.459038 -135.593939 -21.482065 -40.034144 156.406920 0.000000 0.000000 0.000000 1.107532 3.054333 -44.753520 -12.843934 3.853329 11.313253 6.111707 2.169766 27.193890 0.000000 0.000000 0.000000 -4.583061 -2.675999 -80.445653 0.000000 0.000000 0.000000 -144.134680 1.300331 -17.591051 80.403033 37.948515 -66.640968 31.019717 8.764852 38.498175 0.000000 0.000000 0.000000 149.970095 16.079841 -19.857320 -80.286731 -42.135644 -58.781862 -20.013524 -12.148276 40.265896 
-0.638027 0.974762 -0.098722 3.390132 4.413772 18.957324 0.000000 0.000000 0.000000 -18.296094 -6.562899 -19.343234 22.635330 3.021377 -22.717273 94.338051 33.529613 166.102589 0.000000 0.000000 0.000000 27.931549 -11.133998 19.774628 -3.651446 -19.929512 -132.968239 -62.937175 -29.635876 173.375063 0.000000 0.000000 0.000000 1.870807 3.602261 -45.143872 -13.407836 3.954114 10.724542 5.216916 0.939043 27.811799 0.000000 0.000000 0.000000 -1.798120 -0.648441 -80.230874 0.000000 0.000000 0.000000 -145.252463 -3.609444 -16.520559 87.963443 38.928500 -61.356235 35.970996 8.949900 39.216470 0.000000 0.000000 0.000000 150.245311 10.058263 -22.393386 -72.534512 -40.048279 -64.033427 -21.842565 -12.217274 38.027655 
-0.635271 0.984702 -0.120142 2.759894 2.254278 18.348526 0.000000 0.000000 0.000000 -18.446012 -7.641096 -22.079954 25.249291 2.407026 -18.183631 83.608037 37.890982 167.757031 0.000000 0.000000 0.000000 25.105655 -14.241903 29.255905 -6.619834 -19.445405 -124.479680 -107.818529 -15.497693 169.145767 0.000000 0.000000 0.000000 2.828590 4.181206 -45.835685 -13.909098 4.066311 10.366427 4.361663 0.207714 28.474578 0.000000 0.000000 0.000000 0.391835 0.897686 -79.890084 0.000000 0.000000 0.000000 -145.911679 -5.401041 -17.715558 89.584582 39.472477 -60.514352 38.678062 9.359258 37.671556 0.000000 0.000000 0.000000 149.974364 5.916897 -23.702685 -71.280485 -38.938663 -63.910150 -22.333028 -12.253996 37.845887 
